<svg xmlns="http://www.w3.org/2000/svg" enable-background="new 0 0 1500 1500" viewBox="0 0 1500 1500" id="woman-paying-via-card-for-online-shopping"><circle cx="692.3" cy="531.8" r="419.9" fill="#ffc000"></circle><polygon fill="#2e3744" points="451 1330.6 425.3 1330.6 480.8 1128.6 521.1 1128.6"></polygon><polygon fill="#2e3744" points="566 1330.6 540.3 1330.6 595.8 1128.6 636.1 1128.6"></polygon><polygon fill="#2e3744" points="1009.7 1330.6 1035.5 1330.6 979.9 1128.6 939.7 1128.6"></polygon><polygon fill="#2e3744" points="894.8 1330.6 920.5 1330.6 865 1128.6 824.7 1128.6"></polygon><polygon fill="#2e3744" points="467.2 934.4 380 617.7 413.7 617.7 500.9 934.4"></polygon><polygon fill="#2e3744" points="789 934.4 701.9 617.7 735.5 617.7 822.7 934.4"></polygon><path fill="#ff4f4b" d="M405.7,764.4l-96-351.8c-9.8-36,17.3-71.5,54.6-71.5h244.4C643,341.1,673,364,682,397l103.4,379H420.9
				C413.8,776.1,407.5,771.3,405.7,764.4z"></path><path d="M465.3,764.4l-96-351.8c-9.8-36,17.3-71.5,54.6-71.5h-59.6c-37.3,0-64.5,35.5-54.6,71.5l96,351.8
				c1.9,6.9,8.1,11.6,15.2,11.6h59.6C473.4,776.1,467.1,771.3,465.3,764.4z" enable-background="new" opacity=".26"></path><path fill="#ff4f4b" d="M976.1,1150.5H484.7c-15.2,0-28-11.2-29.9-26.2L436.3,986c-6.5-48.5,31.3-91.6,80.2-91.6h427.6
			c49,0,86.7,43.1,80.2,91.6l-18.4,138.3C1004,1139.3,991.3,1150.5,976.1,1150.5z"></path><path d="M944.2,894.4H516.6c-18.3,0-35,6-48.4,16c-31.2,23.3-13.4,73.3,25.5,73.3H967c38.9,0,56.7-49.9,25.5-73.3
			C979.2,900.4,962.5,894.4,944.2,894.4z" enable-background="new" opacity=".26"></path><path d="M760.2,951.9l-124.1,165.3c0,0-49.9,16.3-56.7,33.3h223.1l70.6-47.7l25.4,47.7h41.3l-79-207.6L760.2,951.9z" enable-background="new" opacity=".26"></path><g><path fill="#006ad3" d="M1456.5,731.6h-290.8c-14.4,0-26-11.6-26-26V414.8c0-14.4,11.6-26,26-26h290.8c14.4,0,26,11.6,26,26v290.8
				C1482.6,719.9,1470.9,731.6,1456.5,731.6z"></path><path fill="#ffc000" d="M1139.7,632.7v75.5c0,12.9,10.5,23.4,23.4,23.4h296c12.9,0,23.4-10.5,23.4-23.4v-75.5H1139.7z"></path><path fill="#fff" d="M1279.8 694.5c0 8.8-6.9 13.8-20.2 13.8h-26.2v-50.6h24.7c12.7 0 19.1 5.3 19.1 13.1 0 5.1-2.6 9-6.7 11.1C1276.2 683.8 1279.8 688.1 1279.8 694.5zM1245.1 666.6v11.9h11.6c5.7 0 8.8-2 8.8-6s-3.1-5.9-8.8-5.9H1245.1zM1268 693.3c0-4.3-3.2-6.3-9.3-6.3h-13.7v12.5h13.7C1264.8 699.5 1268 697.6 1268 693.3zM1288.3 686v-28.3h11.7v27.9c0 9.6 4.2 13.6 11.3 13.6 7.1 0 11.3-4 11.3-13.6v-27.9h11.6V686c0 14.9-8.5 23.1-22.9 23.1C1296.8 709.2 1288.3 700.9 1288.3 686zM1369.2 690.4v17.9h-11.7v-18.1l-19.6-32.5h12.4l13.5 22.5 13.5-22.5h11.5L1369.2 690.4z"></path><g><path fill="#fff" d="M1406,583.6h-189.7c-9.8,0-17.2-9-15.2-18.7l21.4-102.6c1.5-7.2,7.9-12.3,15.2-12.3h146.9
					c7.3,0,13.7,5.2,15.2,12.3l21.4,102.6C1423.2,574.5,1415.8,583.6,1406,583.6z"></path><path fill="#c2dbff" d="M1410,511.1l-10.2-48.8c-1.5-7.2-7.9-12.3-15.2-12.3h-146.9c-7.3,0-13.7,5.2-15.2,12.3l-10.2,48.8
					c2.7,3.2,5.7,6.1,9.2,8.5c24,16.4,55.3,26.4,89.6,26.4c34.3,0,65.6-9.9,89.6-26.4C1404.2,517.2,1407.3,514.3,1410,511.1z"></path><path fill="#fff" d="M1384.6,449.9h-146.8c-7.4,0-13.7,5.2-15.2,12.4l-2.4,11.6c-3.2,15.4,3.3,31.2,16.5,39.8
					c20,12.9,46,20.7,74.6,20.7c28.6,0,54.6-7.8,74.6-20.7c13.2-8.5,19.6-24.4,16.5-39.8l-2.4-11.6
					C1398.3,455.1,1391.9,449.9,1384.6,449.9z"></path><path fill="none" stroke="#0059e2" stroke-miterlimit="10" stroke-width="1.913" d="M1321.2,516.8h-20.1c-3.2,0-5.8-2.6-5.8-5.8l0,0c0-3.2,2.6-5.8,5.8-5.8h20.1c3.2,0,5.8,2.6,5.8,5.8l0,0
					C1327,514.1,1324.4,516.8,1321.2,516.8z"></path><path fill="none" stroke="#fff" stroke-miterlimit="10" stroke-width="1.913" d="M1353.1,480.5h-83.9V458c0-23.2,18.8-41.9,41.9-41.9l0,0c23.2,0,41.9,18.8,41.9,41.9V480.5z"></path></g></g><g><path fill="none" stroke="#0059e2" stroke-miterlimit="10" stroke-width="1.833" d="M188.6,977.9c0,0,2.7-70.1,45.9-70.1s56,70.1,56,70.1"></path><polygon fill="#ff4b85" points="399.1 1328.5 80 1328.5 120.4 961.5 358.6 961.5"></polygon><polygon fill="#ff1f70" points="327.5 961.5 287 1328.5 399.1 1328.5 358.6 961.5"></polygon><path fill="none" stroke="#0059e2" stroke-miterlimit="10" stroke-width="1.833" d="M274.9,977.9c0,0-2.7-70.1-45.9-70.1c-43.1,0-56,70.1-56,70.1"></path></g><g><path fill="none" stroke="#0059e2" stroke-miterlimit="10" stroke-width="1.833" d="M1256.3 1077.7c0 0-59.3-76.6-99-64.2-39.7 12.4-12.4 70.5 92.6 66.5M1265.8 1077.7c0 0 59.3-76.6 99-64.2 39.7 12.4 12.4 70.5-92.6 66.5"></path><line x1="1210.2" x2="1258.3" y1="998.6" y2="1077" fill="none" stroke="#0059e2" stroke-miterlimit="10" stroke-width="1.833"></line><line x1="1311.8" x2="1263.7" y1="998.6" y2="1077" fill="none" stroke="#0059e2" stroke-miterlimit="10" stroke-width="1.833"></line><rect width="367.7" height="256.6" x="1077.2" y="1074" fill="#006ad3"></rect><rect width="386.7" height="74.7" x="1067.6" y="1074" fill="#006ad3"></rect><rect width="53.7" height="256.6" x="1236.7" y="1074" enable-background="new" opacity=".26"></rect><rect width="53.7" height="256.6" x="1234.2" y="1074" fill="#fff"></rect><polygon points="1444.9 1195.7 1077.2 1163.4 1077.2 1148.6 1444.9 1148.6" enable-background="new" opacity=".26"></polygon></g><g><path fill="none" stroke="#000" stroke-miterlimit="10" stroke-width="1.408" d="M1030 729c0 12.2 7.5 12.2 7.5 24.4 0 12.2-7.5 12.2-7.5 24.4M1051.1 729c0 12.2 7.5 12.2 7.5 24.4 0 12.2-7.5 12.2-7.5 24.4M1072.1 729c0 12.2 7.5 12.2 7.5 24.4 0 12.2-7.5 12.2-7.5 24.4"></path></g><g><path fill="#ff7f72" d="M1011.4,1176.8l17.1,47.4c17,52.6,55.9,94.6,105.5,118.9l36.1,20c5.8,3.2,4.2,11.9-2.3,12.9l-30.6,4.5
			c-16.9,2.5-34.1-2-47.6-12.5l-21.1-16.5c-5.8-3.1-12.2-4.9-18.8-5.2c-13.5-0.7-37.5-4-45.4-19.3c-11.2-21.6-3.2-50.1-3.2-50.1
			l-51.4-104L1011.4,1176.8z"></path><path fill="#2e3744" d="M768.3,1142.4c-10.1,6.3-54.6-40.2-54.6-40.2l19.5-22.7l43,36.6C776.2,1116.1,777.3,1136.8,768.3,1142.4z"></path><path fill="#ff7f72" d="M774.1,1090.9l-72.3,52.4c-45,32.1-73.3,81.9-81.4,136.5l-8.1,40.5c-1.3,6.5-10.1,7.6-13,1.7l-13.6-27.8
			c-7.5-15.4-8.4-33.1-2.4-49.2l9.3-25.1c1.2-6.5,0.9-13.1-0.8-19.5c-3.4-13-7.5-37,4.6-49.1c17.2-17.2,46.8-18.1,46.8-18.1
			l83.6-80.4L774.1,1090.9z"></path><path fill="#006ad3" d="M703.3,1075.2c0,0,71.7,47.4,65,67.2c0,0,165.2-104.3,213.2-136.6s76.7-84.5,52.7-123.5
			s-135.8-57.5-135.8-57.5L703.3,1075.2z"></path><path d="M927.1 955.2c-4-39.1-26.7-71.5-58-92.8L773.5 986c17 .9 28.7 1.3 28.7 1.3s12.4 62.1 23.3 118.8c33.3-21.2 75.3-47.9 109.1-69.7C931.5 1001 928.7 970.8 927.1 955.2zM989.2 1000.2c-8.5-26.5-29.4-89.5-40.3-106.8-13.9-22-35.5-36.9-57.3-50.9l70.5 176c7.5-4.9 14.1-9.3 19.3-12.8C984.1 1004 986.7 1002.1 989.2 1000.2z" enable-background="new" opacity=".26"></path><path fill="#006ad3" d="M915.5,856.1c0.5,0.6,1,1.2,1.5,1.9c-0.6-0.7-1.1-1.4-1.7-2.1C915.3,855.9,915.4,856,915.5,856.1z"></path><path fill="#006ad3" d="M930.5,897.4c0,35.4-28.7,64.1-64.1,64.1H657.6c-54.5,0-118-9.6-136.6-69.5c-18.6-59.9,4.8-105.5,4.8-105.5
			l226.8,12.2c0,0,15.9,10.6,69.8,15.4c28.4,2.5,56,12.5,78.2,29.1c5.2,3.8,10.1,8,14.6,12.7C924.8,867,930.5,881.5,930.5,897.4z"></path><path fill="#ffc000" d="M915.2,855.9c-4.5-4.6-9.4-8.8-14.6-12.7C906.1,846.6,911.1,850.9,915.2,855.9z"></path><path fill="#006ad3" d="M944.6,903.4c-6-18.4-16.2-34.2-29.1-47.2c0.5,0.6,1,1.2,1.5,1.9c-0.6-0.7-1.1-1.4-1.7-2.1
			c-11.7-13.8-29.2-22.5-48.7-22.5c-35.4,0-64,28.7-64,64.1c0,8.4,1.7,16.5,4.7,23.9h0l0.1,0.2c2,4.9,4.6,9.4,7.6,13.6l14.8,26.4
			c0,0,29.4,67.1,53.3,122.8c24,55.7,32.9,101.3,32.9,101.3h117.5C1033.3,1185.6,962,956.1,944.6,903.4z"></path><path fill="#ffc000" d="M915.5,856.1c0.5,0.6,1,1.2,1.5,1.9c-0.6-0.7-1.1-1.4-1.7-2.1C915.3,855.9,915.4,856,915.5,856.1z"></path><path d="M513.8,835.3l180.5-39.8l-168.9-9C525.4,786.5,515.7,805.6,513.8,835.3z" enable-background="new" opacity=".26"></path><path fill="#ff7f72" d="M907.9,777.7c0,23.7-17.4,43.3-40.2,46.7c-2.3,0.4-4.6,0.5-7,0.5c-25.3,0-51.9-33-53.6-58.8c0,0,0,0,0,0
			c-1.6-5.9-3-11.9-4.3-17.8c-7.7-35.1-23.8-121.8-23.8-121.8l18.2-132.1c29.9,7.6,43.4,16.1,54.6,51.6
			c10.3,32.6,37.3,157.7,37.3,157.7l16.3,58.8l1.4,5.2C907.5,771,907.9,774.3,907.9,777.7z"></path><path fill="#ff7f72" d="M1017,540.3l-19.1,54.9c0,0-31.4,114.4-45.8,156.2c-12.9,37.4-31.2,69-67.4,73c-3.2,0.7-6.5,1.1-9.9,1.1
			c-23.8,0-43.1-19.3-43.1-43.1c0-12.3,5.2-23.5,13.5-31.3l43.9-47.4l80.8-116c4.4-6.4,5.6-14.4,3.1-21.7l-4.7-13.9l20.7-41.6
			l22.8,14.6C1016.8,528.3,1019,534.7,1017,540.3z"></path><line x1="889.2" x2="862.2" y1="703.8" y2="743.3" fill="none" stroke="#ff4f4b" stroke-miterlimit="10" stroke-width="1.973"></line><path fill="#fff" d="M780.4,488.3l10.6,3.2c9.1,2.8,15.9,10.3,17.7,19.6c3,15.3,8.9,41,19.1,71.7c16.5,49.9-13.2,94.4-47.3,108.3
			l-35.9,107.4h-225c-10.1,0-18.7-8-18.5-18.1c0.4-16.5,16.7-16.9,22.9-55.6c6.3-39.1,40.1-171.5,75.9-209
			c35.5-37,70.3-35.8,97.1-36.4C725.9,478.9,780.4,488.3,780.4,488.3z"></path><line x1="570.1" x2="733.7" y1="733.1" y2="703.8" fill="none" stroke="#919191" stroke-miterlimit="10" stroke-width="1.973"></line><circle cx="650.5" cy="567.2" r="71.3" fill="#ff7f72"></circle><path fill="none" stroke="#ff4f4b" stroke-miterlimit="10" stroke-width="1.973" d="M692.3,530.6c-3.6-21.6-39.5-34.4-68.9-25.9"></path><path fill="#ff4f4b" d="M625.9,634l-34-77.6l-5.7,41.4C594.2,614.5,608.4,627.5,625.9,634z"></path><line x1="821.5" x2="797.3" y1="961.4" y2="907.4" fill="none" stroke="#002d7d" stroke-miterlimit="10" stroke-width="1.913"></line><line x1="802.4" x2="768.3" y1="945.6" y2="907.4" fill="none" stroke="#002d7d" stroke-miterlimit="10" stroke-width="1.913"></line><path fill="#919191" d="M1178 1366.5l-38.2-21.1c-50.6-24.7-89.3-68.3-108.1-121.2-.6-1.8-2.3-3-4.2-3.1l-54.7-1.6c-2.6-.1-4.3 2.6-3.3 4.9l25.5 55.2c0 0-4.3 26.1 7.6 48.9 8.4 16.1 33.8 19.6 48 20.3 6.9.4 13.8 2.1 19.9 5.4l22.3 17.4c14.3 11.1 32.4 15.9 50.3 13.2l32.4-4.8C1182.4 1379.1 1184.1 1369.9 1178 1366.5zM611.3 1328.8l8.6-42.8c8.3-55.7 38.2-105.8 82.9-139.7 1.5-1.1 2.2-3.1 1.7-5l-15-52.6c-.7-2.5-3.8-3.4-5.7-1.6l-44.9 41c0 0-26.2 3.8-44.3 22-12.8 12.8-8.5 38.1-4.9 51.9 1.8 6.7 2.1 13.8.8 20.6l-9.8 26.6c-6.3 17-5.3 35.7 2.6 52l14.3 29.4C600.6 1336.8 609.9 1335.7 611.3 1328.8z"></path><path fill="none" stroke="#000" stroke-miterlimit="10" stroke-width="1.913" d="M1095.5,785.3v1.5c0,35.7-19.9,64.7-44.5,64.7c-9.5,0-18.3-4.3-25.5-11.7c-11.1-11.3-18.5-29.9-18.9-50.9
				c-0.1-0.7-0.1-1.4-0.1-2.1c0-0.5,0.1-0.9,0.1-1.5H1095.5z"></path><path fill="none" stroke="#000" stroke-miterlimit="10" stroke-width="1.913" d="M1025.6,839.8h-28.8c-14,0-25.4-11.4-25.4-25.4c0-7,2.9-13.4,7.5-18c4.6-4.6,10.9-7.5,18-7.5h9.9
				C1007.1,810,1014.4,828.5,1025.6,839.8z"></path><path fill="#2e3744" d="M979.9,583.9h-53.6c-4.1,0-6.6-3.4-5.4-7.5l27.8-97.9c1.2-4.1,5.5-7.5,9.7-7.5h53.6c4.1,0,6.6,3.4,5.4,7.5
				l-27.8,97.9C988.4,580.5,984.1,583.9,979.9,583.9z"></path><path fill="none" stroke="#fff" stroke-miterlimit="10" stroke-width=".986" d="M965.5 484.4c-.8 2.9-3.9 5.3-6.8 5.3s-4.6-2.4-3.8-5.3c.8-2.9 3.9-5.3 6.8-5.3S966.4 481.5 965.5 484.4zM984.5 487h-11.1c-1.5 0-2.3-1.2-1.9-2.6l0 0c.4-1.5 1.9-2.6 3.4-2.6H986c1.5 0 2.3 1.2 1.9 2.6l0 0C987.5 485.9 985.9 487 984.5 487z"></path><path fill="#ff7f72" d="M816.1,439.3c-0.2,13.8-4.7,22.1-17.2,22.5c-12.6,0.4-23.6-4.7-23.6-4.7l-4.3,28.3l9.4,2.9
			c0,0,36.3,81.4,8.5,86c-19.5,3.3-34.3-17.3-49-38.9c-15-22-15-42.1-43.1-55.9c0,0,19.8-4.1,31.9-43c9.4-30.3,37.9-87.2,37.9-87.2
			l54.2,19.2l6.9,62.8L816.1,439.3z"></path><path fill="none" stroke="#ff4f4b" stroke-miterlimit="10" stroke-width="1.973" d="M775.2,457.1c-14-5.4-27.3-20.5-27.3-20.5"></path><polygon fill="#ff4f4b" points="802.2 426.9 816.1 426.9 816.1 433.3"></polygon><path fill="#2e3744" d="M775.5,357.7c0,0,13.5,20.2,6.7,40s-40.4,21.1-27.9,57.1h-58.9c0,0-4.1-37.3-4.1-67.4
			c0-30.1,18-71.9,75.5-47.6c19.8-25.6,63.8-9.9,67.4,23.4c3.6,33.3-8.1,31.4,14.8,45.8c22.9,14.4,16.8,35.7-33.1,30.3
			c0,0,0-2.4,0-28.4C816.1,384.7,803.5,365,775.5,357.7z"></path><path fill="#2e3744" d="M730.5,334.1c0,20-16.2,36.2-36.2,36.2s-36.2-16.2-36.2-36.2c0-20,16.2-36.2,36.2-36.2
			C714.3,298,730.5,314.2,730.5,334.1z"></path><line x1="730.5" x2="747.9" y1="492.1" y2="504.7" fill="none" stroke="#ff4f4b" stroke-miterlimit="10" stroke-width="1.973"></line><line x1="771" x2="768.4" y1="485.4" y2="502.8" fill="none" stroke="#ff4f4b" stroke-miterlimit="10" stroke-width="1.973"></line><path fill="#ff7f72" d="M997.6 593.8c0 0-10.5-12.1-6.4-30.1 0 0-27.2 1.8-27.4-1.8-.2-3.6 32.4-8.3 32.4-8.3s-39.5-21.6-37.3-27.9c2.2-6.3 41.6 17.3 41.6 17.3s-38-25.2-36.6-31.2c1.3-6.1 40.9 20 40.9 20l-3.2-15.1c0 0-20.9-18.7-17.5-22.4 3.4-3.7 24.7 15.2 24.7 15.2l12.5 16.4c3.5 4.7 4.1 10.9 1.6 16.1L997.6 593.8zM693.8 536.6l50.6 262 183.1 19.6 38.3-23.9c0 0 33.9-6.3 33.3 12.3 0 0 7.8 7.5 0 14.4 0 0 1.8 8.7-1.5 11.4-3.3 2.7-9 0-9 0l-19.8 1.2c0 0 21.6 2.7 31.4 14.1 0 0-5.7 2.7-29.9-7.5 0 0-20.1 17.4-44.3 5.1 0 0-122.8 33.5-163.7 41.9s-101.4-6-117-77.3C629.7 738.6 592 556.4 592 556.4L693.8 536.6z"></path><line x1="707.3" x2="696.8" y1="606.5" y2="552.1" fill="none" stroke="#ff4f4b" stroke-miterlimit="10" stroke-width="1.973"></line></g><g><path fill="#006ad3" d="M335.1,847.8H25.9c-10,0-18.1-8.1-18.1-18.1V651c0-10,8.1-18.1,18.1-18.1h309.2c10,0,18.1,8.1,18.1,18.1
			v178.8C353.2,839.8,345,847.8,335.1,847.8z"></path><rect width="345.3" height="46.1" x="7.9" y="707.8" enable-background="new" opacity=".26"></rect><path fill="#ffc000" d="M270.5,800.2c0,17.9-14.5,32.3-32.3,32.3c-17.9,0-32.3-14.5-32.3-32.3c0-17.8,14.5-32.3,32.3-32.3
				C256,767.8,270.5,782.3,270.5,800.2z"></path><path fill="#ff4f4b" d="M315.3,800.2c0,17.9-14.5,32.3-32.3,32.3c-17.9,0-32.3-14.5-32.3-32.3c0-17.8,14.5-32.3,32.3-32.3
				C300.9,767.8,315.3,782.3,315.3,800.2z"></path><ellipse cx="260.6" cy="800.2" fill="#fff" rx="9.9" ry="23.2"></ellipse><g><path fill="none" stroke="#fff" stroke-miterlimit="10" stroke-width="1.973" d="M127.3 663.9H42.1c-3.9 0-7-3.1-7-7l0 0c0-3.9 3.1-7 7-7h85.1c3.9 0 7 3.1 7 7l0 0C134.3 660.8 131.2 663.9 127.3 663.9zM184.2 690.8h-142c-3.9 0-7-3.1-7-7l0 0c0-3.9 3.1-7 7-7h142c3.9 0 7 3.1 7 7l0 0C191.2 687.7 188 690.8 184.2 690.8z"></path></g></g></svg>